<svg width="24" height="24" viewBox="0 0 24 24" fill="none" xmlns="http://www.w3.org/2000/svg">
<g clip-path="url(#clip0_20_163)">
<path d="M20.3175 4.3605C18.7614 3.64587 17.1192 3.13612 15.432 2.844C15.4167 2.84142 15.401 2.84365 15.3871 2.85036C15.3731 2.85708 15.3615 2.86795 15.354 2.8815C15.1425 3.2565 14.9085 3.747 14.745 4.131C12.9264 3.85524 11.0766 3.85524 9.25801 4.131C9.0764 3.70288 8.87005 3.28567 8.64001 2.8815C8.63248 2.86795 8.62093 2.85708 8.60696 2.85036C8.593 2.84365 8.57729 2.84142 8.56201 2.844C6.87451 3.135 5.23201 3.645 3.67651 4.3605C3.66313 4.36547 3.65196 4.37504 3.64501 4.3875C0.534009 9.036 -0.319491 13.5705 0.0990092 18.048C0.102009 18.07 0.112509 18.0885 0.130509 18.1035C1.94246 19.4448 3.96866 20.4693 6.12301 21.1335C6.13822 21.1383 6.15457 21.1381 6.16967 21.133C6.18478 21.1279 6.19786 21.1181 6.20701 21.105C6.67001 20.475 7.07901 19.8105 7.43401 19.1115C7.44139 19.0971 7.44391 19.0807 7.44121 19.0648C7.43851 19.0488 7.43072 19.0342 7.41901 19.023L7.39201 19.0065C6.74605 18.7574 6.1202 18.4591 5.52001 18.114C5.50325 18.1045 5.49079 18.0889 5.48521 18.0705C5.47962 18.0521 5.48134 18.0322 5.49001 18.015L5.51251 17.9865C5.63951 17.8915 5.76351 17.794 5.88451 17.694C5.89511 17.6855 5.90783 17.68 5.9213 17.6781C5.93478 17.6763 5.9485 17.6781 5.96101 17.6835C9.88951 19.4775 14.142 19.4775 18.0225 17.6835C18.0354 17.6775 18.0497 17.6754 18.0638 17.6772C18.0779 17.6791 18.0911 17.6849 18.102 17.694C18.223 17.794 18.347 17.8915 18.474 17.9865C18.4846 17.9937 18.4931 18.0035 18.4988 18.015C18.5045 18.0264 18.5072 18.0391 18.5066 18.0519C18.506 18.0647 18.5021 18.0771 18.4954 18.088C18.4886 18.0988 18.4792 18.1078 18.468 18.114C17.8704 18.4645 17.2436 18.7626 16.5945 19.005C16.5842 19.0087 16.5748 19.0147 16.567 19.0225C16.5592 19.0303 16.5533 19.0397 16.5495 19.05C16.5459 19.06 16.5444 19.0706 16.5451 19.0812C16.5459 19.0918 16.5489 19.1022 16.554 19.1115C16.914 19.809 17.3265 20.475 17.7795 21.105C17.7887 21.1181 17.8017 21.1279 17.8168 21.133C17.8319 21.1381 17.8483 21.1383 17.8635 21.1335C20.0221 20.473 22.0519 19.4482 23.865 18.1035C23.874 18.0971 23.8815 18.0889 23.887 18.0793C23.8924 18.0697 23.8957 18.059 23.8965 18.048C24.3975 12.8715 23.058 8.3745 20.3475 4.389C20.3452 4.38219 20.3412 4.37606 20.336 4.3711C20.3308 4.36614 20.3244 4.3625 20.3175 4.3605ZM8.02051 15.321C6.83701 15.321 5.86351 14.235 5.86351 12.903C5.86351 11.571 6.81901 10.4835 8.02051 10.4835C9.23101 10.4835 10.1955 11.5785 10.1775 12.903C10.1775 14.235 9.22201 15.321 8.02051 15.321ZM15.9945 15.321C14.8125 15.321 13.8375 14.235 13.8375 12.903C13.8375 11.571 14.793 10.4835 15.9945 10.4835C17.205 10.4835 18.171 11.5785 18.1515 12.903C18.1515 14.235 17.205 15.321 15.9945 15.321Z" fill="currentColor"/>
</g>
<defs>
<clipPath id="clip0_20_163">
<rect width="24" height="24" fill="white"/>
</clipPath>
</defs>
</svg>
