<svg width="16" height="16" viewBox="0 0 16 16" fill="none" xmlns="http://www.w3.org/2000/svg">
<path d="M4.422 6.83331C4.95934 6.83331 5.444 6.53598 5.776 6.11331C6.29351 5.45306 6.94314 4.9081 7.68334 4.51331C8.16534 4.25731 8.58334 3.87598 8.78534 3.36998C8.92721 3.01548 9.00007 2.63715 9 2.25531V1.83331C9 1.7007 9.05268 1.57353 9.14645 1.47976C9.24022 1.38599 9.36739 1.33331 9.5 1.33331C9.89783 1.33331 10.2794 1.49135 10.5607 1.77265C10.842 2.05396 11 2.43549 11 2.83331C11 3.60131 10.8267 4.32865 10.518 4.97865C10.3407 5.35065 10.5893 5.83331 11.0013 5.83331M11.0013 5.83331H13.0853C13.7693 5.83331 14.382 6.29598 14.4547 6.97665C14.4847 7.25798 14.5 7.54331 14.5 7.83331C14.5028 9.65754 13.8794 11.4275 12.734 12.8473C12.4753 13.1686 12.076 13.3333 11.664 13.3333H8.98667C8.66467 13.3333 8.344 13.2813 8.038 13.18L5.962 12.4866C5.65607 12.3849 5.33574 12.3331 5.01334 12.3333H3.936M11.0013 5.83331H9.5M3.936 12.3333C3.99134 12.47 4.05134 12.6033 4.116 12.7346C4.24734 13.0013 4.064 13.3333 3.76734 13.3333H3.162C2.56934 13.3333 2.02 12.988 1.84734 12.4213C1.61643 11.6635 1.49938 10.8755 1.5 10.0833C1.5 9.04798 1.69667 8.05931 2.054 7.15131C2.258 6.63531 2.778 6.33331 3.33334 6.33331H4.03534C4.35 6.33331 4.532 6.70398 4.36867 6.97331C3.79926 7.91061 3.49895 8.98661 3.50067 10.0833C3.50067 10.8793 3.65467 11.6386 3.936 12.3333Z" stroke="#6b7280" stroke-width="1.5" stroke-linecap="round" stroke-linejoin="round" class='duration-500'/>
</svg>
