<svg width="30" height="26" viewBox="0 0 30 26" fill="none" xmlns="http://www.w3.org/2000/svg">
<path d="M22 8V18M27 13H17" stroke="#1F2937" stroke-width="1.5" stroke-linecap="round" stroke-linejoin="round"/>
<path d="M0.02 20V18.86C0.393333 18.86 0.693333 18.7533 0.92 18.54C1.14667 18.3267 1.33333 18.0467 1.48 17.7C1.62667 17.34 1.78 16.94 1.94 16.5L5.92 5.64H7L11.34 16.7C11.42 16.9267 11.5267 17.2467 11.66 17.66C11.7933 18.0733 11.8667 18.4333 11.88 18.74C12.1067 18.7267 12.3267 18.7133 12.54 18.7C12.7533 18.6867 12.94 18.68 13.1 18.68V20H8V18.9C8.41333 18.9 8.69333 18.8133 8.84 18.64C8.98667 18.4667 9.04667 18.24 9.02 17.96C9.00667 17.68 8.94 17.3933 8.82 17.1L8.32 15.74L3.68 15.82L3.24 17.16C3.16 17.3867 3.06667 17.6467 2.96 17.94C2.85333 18.22 2.74667 18.4733 2.64 18.7C2.88 18.6867 3.14 18.6733 3.42 18.66C3.71333 18.6467 3.94667 18.64 4.12 18.64V20H0.02ZM4.12 14.54H7.88L6.8 11.6C6.64 11.1467 6.48667 10.6933 6.34 10.24C6.20667 9.77333 6.09333 9.34667 6 8.96H5.96C5.88 9.22667 5.78 9.57333 5.66 10C5.55333 10.4267 5.4 10.9133 5.2 11.46L4.12 14.54Z" fill="#1F2937"/>
</svg>
