<svg width="16" height="16" viewBox="0 0 16 16" fill="none" xmlns="http://www.w3.org/2000/svg">
<path d="M4.81131 7.27134C4.64988 6.98088 4.39658 6.75225 4.09115 6.62133C3.78573 6.49041 3.44548 6.46461 3.12381 6.54799C2.80214 6.63137 2.51726 6.8192 2.31389 7.08201C2.11053 7.34481 2.00018 7.6677 2.00018 8.00001C2.00018 8.33231 2.11053 8.6552 2.31389 8.918C2.51726 9.18081 2.80214 9.36864 3.12381 9.45202C3.44548 9.5354 3.78573 9.5096 4.09115 9.37868C4.39658 9.24776 4.64988 9.01913 4.81131 8.72867M4.81131 7.27134C4.93131 7.48734 4.99997 7.73534 4.99997 8.00001C4.99997 8.26467 4.93131 8.51334 4.81131 8.72867M4.81131 7.27134L11.1886 3.72867M4.81131 8.72867L11.1886 12.2713M11.1886 3.72867C11.2821 3.90476 11.4098 4.06045 11.5642 4.18662C11.7186 4.3128 11.8965 4.40693 12.0877 4.46352C12.2789 4.52011 12.4794 4.53802 12.6776 4.5162C12.8758 4.49438 13.0676 4.43327 13.2419 4.33645C13.4162 4.23962 13.5694 4.10902 13.6927 3.95228C13.8159 3.79554 13.9066 3.61581 13.9596 3.42359C14.0125 3.23138 14.0266 3.03053 14.0011 2.8328C13.9755 2.63507 13.9108 2.44442 13.8106 2.27201C13.6134 1.93223 13.2906 1.68343 12.9118 1.57908C12.5331 1.47473 12.1284 1.52317 11.785 1.71397C11.4415 1.90478 11.1867 2.22273 11.0751 2.59947C10.9636 2.97621 11.0044 3.38166 11.1886 3.72867ZM11.1886 12.2713C11.093 12.4436 11.0321 12.633 11.0096 12.8288C10.9871 13.0245 11.0034 13.2228 11.0576 13.4122C11.1117 13.6017 11.2026 13.7787 11.3252 13.933C11.4477 14.0873 11.5994 14.216 11.7716 14.3117C11.9439 14.4074 12.1333 14.4682 12.3291 14.4907C12.5248 14.5132 12.7231 14.4969 12.9125 14.4427C13.102 14.3886 13.279 14.2977 13.4333 14.1752C13.5876 14.0526 13.7163 13.9009 13.812 13.7287C14.0052 13.3808 14.0524 12.9704 13.943 12.5878C13.8337 12.2051 13.5768 11.8816 13.229 11.6883C12.8811 11.4951 12.4707 11.4479 12.0881 11.5573C11.7054 11.6666 11.3819 11.9235 11.1886 12.2713Z" stroke="#3B82F6" stroke-width="1.5" stroke-linecap="round" stroke-linejoin="round"/>
</svg>
