<svg width="32" height="32" viewBox="0 0 32 32" fill="none" xmlns="http://www.w3.org/2000/svg">
<rect width="32" height="32" rx="16" fill="#4dc959"/>
<g clip-path="url(#clip0_135_682)">
<path d="M24.4937 7.48908C23.3887 6.37833 22.0725 5.49775 20.6219 4.89872C19.1714 4.2997 17.6156 3.99421 16.0452 4.00008C9.46509 4.00008 4.10246 9.33708 4.09643 15.8891C4.09643 17.9876 4.64792 20.0291 5.6891 21.8366L4 28.0001L10.3345 26.3471C12.0861 27.2984 14.0499 27.7962 16.0452 27.7946H16.0512C22.6328 27.7946 27.994 22.4576 28 15.8996C28.0013 14.3367 27.6921 12.7889 27.0901 11.3455C26.4881 9.90206 25.6067 8.59143 24.4937 7.48908ZM16.0452 25.7816C14.266 25.7802 12.5197 25.3036 10.9884 24.4016L10.6268 24.1856L6.86891 25.1666L7.87242 21.5171L7.63737 21.1406C6.6426 19.5661 6.11649 17.7431 6.12004 15.8831C6.12004 10.4441 10.5756 6.00708 16.0512 6.00708C17.3557 6.00475 18.6478 6.25949 19.8529 6.75662C21.058 7.25375 22.1523 7.98342 23.0728 8.90358C23.9963 9.82031 24.7285 10.9099 25.2271 12.1096C25.7256 13.3092 25.9808 14.5953 25.9779 15.8936C25.9719 21.3521 21.5163 25.7816 16.0452 25.7816ZM21.4922 18.3806C21.1954 18.2321 19.7293 17.5136 19.4535 17.4116C19.1793 17.3141 18.9789 17.2631 18.783 17.5601C18.5826 17.8556 18.01 18.5291 17.8383 18.7226C17.6665 18.9221 17.4887 18.9446 17.1904 18.7976C16.8935 18.6476 15.9307 18.3356 14.7916 17.3201C13.9026 16.5326 13.3074 15.5576 13.1296 15.2621C12.9578 14.9651 13.113 14.8061 13.2622 14.6576C13.3933 14.5256 13.559 14.3096 13.7082 14.1386C13.8589 13.9676 13.9086 13.8416 14.0065 13.6436C14.1045 13.4426 14.0578 13.2716 13.9839 13.1231C13.9086 12.9746 13.3134 11.5091 13.0618 10.9181C12.8207 10.3346 12.5751 10.4156 12.3913 10.4081C12.2195 10.3976 12.0191 10.3976 11.8187 10.3976C11.6674 10.4014 11.5185 10.4363 11.3813 10.5001C11.2442 10.5638 11.1217 10.6551 11.0216 10.7681C10.7474 11.0651 9.98041 11.7836 9.98041 13.2491C9.98041 14.7146 11.0502 16.1231 11.2009 16.3226C11.3486 16.5221 13.3014 19.5206 16.2983 20.8106C17.0065 21.1181 17.564 21.2996 17.9995 21.4376C18.7152 21.6656 19.3616 21.6311 19.8769 21.5576C20.4495 21.4706 21.6414 20.8376 21.893 20.1431C22.1401 19.4471 22.1401 18.8531 22.0648 18.7286C21.991 18.6026 21.7906 18.5291 21.4922 18.3806Z" fill="white"/>
</g>
<defs>
<clipPath id="clip0_135_682">
<rect width="24" height="24" fill="white" transform="translate(4 4)"/>
</clipPath>
</defs>
</svg>
